<?xml version="1.0" encoding="UTF-8" standalone="no"?>
<!-- Created with Inkscape (http://www.inkscape.org/) -->

<svg
   width="650"
   height="600"
   viewBox="170 80 650 600"
   version="1.1"
   id="svg1"
   xml:space="preserve"
   xmlns="http://www.w3.org/2000/svg"
   xmlns:svg="http://www.w3.org/2000/svg"><defs
     id="defs1" /><g
     id="layer1"><path
       style="fill:#707070"
       d="m 465.72986,662.78953 c -8.53077,-0.41356 -22.39849,-1.56559 -26,-2.1599 -2.01666,-0.33278 -5.90856,-0.93628 -8.64865,-1.3411 -12.79315,-1.89007 -36.69998,-7.99988 -49.68468,-12.69778 -2.2,-0.79596 -4.9,-1.83349 -6,-2.3056 -1.1,-0.47211 -5.6,-2.3109 -10,-4.08618 -4.4,-1.77529 -12.2,-5.36689 -17.33333,-7.98134 -13.33812,-6.79321 -17.79724,-9.35009 -28,-16.05529 -14.26665,-9.37598 -19.55136,-13.38402 -31.92999,-24.21644 -7.44985,-6.51929 -18.86557,-17.65959 -24.67209,-24.07684 -1.79782,-1.98691 -4.21654,-4.66256 -5.37495,-5.94589 -3.94223,-4.36735 -12.95897,-16.06777 -15.35631,-19.92684 -0.36666,-0.59024 -0.83493,-1.22316 -1.0406,-1.40649 -0.6425,-0.57275 -8.01419,-12.07986 -11.31762,-17.66667 -12.57476,-21.26662 -22.62655,-44.54459 -28.068,-65 -8.18096,-30.7537 -9.86079,-43.53381 -9.8581,-75 0.002,-28.01992 0.86951,-36.41646 6.33392,-61.33333 1.80061,-8.21047 2.67317,-11.35549 6.19619,-22.33333 3.41717,-10.64798 4.18664,-12.94761 4.79606,-14.33333 0.3225,-0.73334 1.96119,-4.63334 3.64153,-8.66667 1.68034,-4.03333 4.94878,-11.08333 7.26319,-15.66667 3.99983,-7.92104 5.13655,-10.03669 8.5071,-15.83333 0.79952,-1.375 1.95692,-3.45487 2.572,-4.62194 0.61508,-1.16707 2.21093,-3.64277 3.54633,-5.50155 1.3354,-1.85878 2.428,-3.51453 2.428,-3.67945 0,-0.16491 1.425,-2.29298 3.16667,-4.72903 1.74167,-2.43605 3.60932,-5.07543 4.15034,-5.86527 7.79243,-11.37639 27.5616,-33.0872 39.34966,-43.21441 2.38333,-2.04754 5.68333,-4.97819 7.33333,-6.51256 3.166,-2.94412 16.25962,-12.99355 21.33392,-16.37391 1.64968,-1.09897 3.14942,-2.15808 3.33275,-2.35358 0.46256,-0.49325 14.10408,-9.01634 15.33333,-9.58012 0.55,-0.25225 3.1,-1.64678 5.66667,-3.09897 2.56667,-1.45219 8.11667,-4.31252 12.33333,-6.35629 4.21667,-2.04377 8.45354,-4.1372 9.41526,-4.65206 2.70147,-1.44625 19.69831,-8.18739 24.91808,-9.88281 12.33995,-4.00808 19.87989,-6.19501 27,-7.83122 12.89883,-2.96417 18.87984,-4.00044 39,-6.75718 7.05727,-0.96694 53.08421,-0.96448 59.66666,0.003 2.75,0.40427 8.45,1.21134 12.66667,1.79349 7.72418,1.0664 17.90058,2.82813 20.29129,3.51282 1.25968,0.36076 1.26064,0.39224 0.0393,1.28533 -0.68862,0.50354 -1.64798,0.91552 -2.13189,0.91552 -0.48392,0 -2.15158,0.55489 -3.70592,1.23308 -1.55433,0.67819 -4.62606,1.90075 -6.82606,2.7168 -2.2,0.81606 -5.35,2.04987 -7,2.74182 -1.65,0.69195 -7.2,2.81453 -12.33334,4.71686 -5.13333,1.90233 -10.83333,4.04214 -12.66666,4.75512 -4.60623,1.79138 -11.35275,4.33204 -15.34906,5.78029 -2.41259,0.87432 -6.3273,1.3438 -14,1.67899 -19.35759,0.84566 -49.72228,5.71413 -60.31761,9.67092 -0.91667,0.34232 -4.36667,1.43299 -7.66667,2.4237 -23.57625,7.07796 -46.85465,18.49871 -70.28,34.48051 -2.57818,1.75895 -5.06989,3.56882 -5.53713,4.02194 -0.46724,0.45312 -1.89953,1.55411 -3.18287,2.44664 -1.28333,0.89253 -2.66703,1.93266 -3.07488,2.31139 -0.40786,0.37873 -2.49892,2.18861 -4.64681,4.02194 -10.86082,9.27027 -19.12955,17.15163 -27.27788,26 -6.99123,7.59186 -27.66709,35.5278 -27.66709,37.38206 0,0.22666 -0.59415,1.24651 -1.32033,2.26634 -1.80485,2.53468 -10.74538,20.058 -13.31608,26.09934 -4.21565,9.90708 -4.65846,11.02153 -6.59008,16.58559 -1.74379,5.02303 -3.3524,10.39792 -6.48445,21.66667 -2.53067,9.10502 -5.02993,24.28136 -6.31279,38.33333 -0.70877,7.76356 -0.70645,32.16168 0.004,40.33333 1.18255,13.60486 3.24259,26.1018 6.37395,38.66667 1.79341,7.19618 8.27524,27.31147 9.70328,30.11247 0.70179,1.37653 1.27599,2.79464 1.27599,3.15134 0,1.0002 9.66513,21.12248 12.52171,26.06952 14.53278,25.16799 31.34368,46.23658 49.47829,62.00964 3.48333,3.02973 7.53333,6.59176 9,7.91562 2.83733,2.56108 3.66252,2.91482 3.67349,1.57474 0.004,-0.45833 0.0788,-31.73333 0.16667,-69.5 l 0.15984,-68.66666 31.50025,-0.33334 31.50025,-0.33333 -2.5e-4,88.80988 -2.5e-4,88.80987 1.499,0.80224 c 2.67679,1.43258 18.12,6.75306 19.83433,6.83332 l 1.66667,0.078 v -119.50001 -119.5 l 32.16667,10e-6 h 32.16666 v 124.96066 c 0,99.24769 0.17148,125.06728 0.83334,125.47887 1.01506,0.63122 22.07406,0.56907 23.10517,-0.0682 0.53089,-0.32811 0.7317,-39.45169 0.72496,-141.24591 l -0.009,-140.79209 32.50625,-0.17287 32.50626,-0.17287 -0.18393,134.17287 c -0.10116,73.79507 -0.0125,134.87929 0.1969,135.74271 0.26488,1.09188 0.72683,1.46611 1.51726,1.22912 1.94223,-0.58232 16.39672,-5.76276 17.8031,-6.38057 0.73334,-0.32214 2.15834,-0.91664 3.16667,-1.3211 l 1.83333,-0.73538 V 468.2708 325.92318 h 30.94548 c 17.02001,0 31.42001,-0.1821 32,-0.40466 0.95923,-0.36809 1.05452,10.65685 1.05452,121.99999 0,110.40399 0.10187,122.40466 1.03905,122.40466 2.10442,0 16.84313,-13.89889 27.88178,-26.29306 5.66297,-6.35836 18.41251,-22.57118 18.41251,-23.41407 0,-0.16498 1.75131,-2.92337 3.89181,-6.12975 2.14049,-3.20638 4.10481,-6.27978 4.36514,-6.82978 0.26033,-0.55 1.20122,-2.2 2.09086,-3.66667 2.77721,-4.57851 12.78297,-25.10548 14.62334,-30 0.96508,-2.56667 2.07523,-5.41667 2.467,-6.33333 1.25493,-2.93632 5.73059,-16.83335 7.08528,-22 2.02273,-7.71444 4.05303,-17.67961 5.43305,-26.66667 0.36598,-2.38333 1.03551,-6.58333 1.48785,-9.33333 0.52679,-3.20263 0.82652,-12.54896 0.8338,-26 0.01,-18.30091 -0.18121,-22.32813 -1.48697,-31.33333 -0.82409,-5.68334 -1.76486,-11.53334 -2.0906,-13 -0.32575,-1.46667 -0.95532,-4.46667 -1.39905,-6.66667 -3.03372,-15.041 -8.60922,-32.12314 -15.77569,-48.33333 -3.09842,-7.00846 -11.22293,-22.54211 -12.5801,-24.0525 -0.52015,-0.57887 -0.94572,-1.24804 -0.94572,-1.48705 0,-0.23901 -1.125,-2.16539 -2.5,-4.28084 -1.375,-2.11545 -2.65,-4.17053 -2.83334,-4.56684 -2.12006,-4.58291 -19.86228,-26.68805 -29.16666,-36.33894 -4.125,-4.27862 -7.5,-8.11758 -7.5,-8.53102 0,-0.70903 1.53346,-4.8543 6.6869,-18.07614 1.21477,-3.11667 2.70746,-7.1501 3.31708,-8.96318 0.60962,-1.81308 1.42554,-3.40222 1.81316,-3.53143 1.87931,-0.62644 19.955,16.91391 31.42532,30.4946 15.84314,18.75805 28.43297,38.10903 38.16878,58.66667 1.82331,3.85 3.56383,7.46033 3.86783,8.02296 1.70945,3.16373 9.76139,24.62193 11.4987,30.64371 0.37025,1.28333 1.23681,4.28333 1.9257,6.66666 3.07725,10.64634 5.88608,24.31527 7.94562,38.66667 2.69334,18.76791 2.68232,53.10921 -0.0228,71 -2.32072,15.34848 -5.72154,32.05549 -7.80301,38.33333 -0.54707,1.65 -1.22782,4.05 -1.51278,5.33333 -0.73715,3.31984 -6.94743,20.82901 -8.59476,24.23193 -0.76033,1.57064 -1.38242,3.10601 -1.38242,3.41195 0,1.46667 -12.11111,25.45395 -16.82278,33.3192 -4.80907,8.02786 -12.37292,19.56047 -13.9794,21.31441 -0.64355,0.70262 -1.99219,2.50262 -2.99699,4 -1.00479,1.49738 -2.73603,3.79956 -3.8472,5.11596 -1.11116,1.31639 -3.9703,4.75112 -6.35363,7.63273 -5.02397,6.07431 -5.0065,6.05519 -13.33333,14.58947 -3.48334,3.57011 -8.28334,8.23464 -10.66667,10.36562 -13.5234,12.09154 -16.62533,14.76823 -19.45649,16.78926 -1.71773,1.22621 -6.74086,4.85447 -11.16251,8.0628 -4.42165,3.20834 -8.23791,5.83334 -8.48059,5.83334 -0.24267,0 -1.42452,0.75 -2.62633,1.66666 -1.20182,0.91667 -2.31006,1.66667 -2.46276,1.66667 -0.1527,0 -3.05195,1.67251 -6.44278,3.71668 -5.99486,3.61403 -18.28713,9.98781 -25.03521,12.98124 -1.83333,0.81326 -5.13333,2.2968 -7.33333,3.29675 -2.2,0.99995 -5.95,2.49812 -8.33333,3.32927 -2.38334,0.83115 -4.63334,1.73191 -5,2.00169 -0.36667,0.26979 -1.56667,0.70502 -2.66667,0.96719 -1.1,0.26216 -2.9,0.86054 -4,1.32972 -1.1,0.46917 -4.85,1.68488 -8.33333,2.70157 -3.48334,1.0167 -7.08334,2.09763 -8,2.40209 -1.62099,0.53838 -10.85318,2.74274 -20.35471,4.86006 -2.57842,0.57457 -6.62842,1.32781 -9,1.67385 -2.37158,0.34605 -7.46196,1.09043 -11.31196,1.65417 -12.47899,1.82727 -36.71275,2.72548 -52.66667,1.95208 z M 261.85534,410.71478 c -1.21433,-1.35205 -4.957,-5.60827 -8.31706,-9.45827 -3.36006,-3.85 -6.57531,-7.45 -7.145,-8 -0.56969,-0.55 -1.88744,-1.95339 -2.92833,-3.11865 l -1.89254,-2.11865 2.28686,-2.35471 c 1.25778,-1.29509 3.43913,-3.27041 4.84745,-4.3896 1.40831,-1.11919 4.41331,-3.75618 6.67776,-5.85997 6.11989,-5.68572 14.84277,-13.55358 17.54481,-15.82509 1.3085,-1.1 4.37112,-3.8 6.80584,-6 9.28112,-8.3864 16.99357,-15.42867 19.61047,-17.90644 1.49468,-1.41521 4.5176,-4.08415 6.7176,-5.93097 2.2,-1.84683 6.7,-5.83958 10,-8.87279 3.3,-3.03321 8.11946,-7.41427 10.70991,-9.73569 2.59045,-2.32143 7.24045,-6.50261 10.33333,-9.29152 3.09288,-2.78891 7.12342,-6.33674 8.95676,-7.88408 1.83333,-1.54733 3.78333,-3.31551 4.33333,-3.92929 0.55,-0.61377 2.93126,-2.76594 5.29169,-4.78258 2.36043,-2.01665 5.37886,-4.71664 6.70763,-5.99997 1.32878,-1.28333 3.78984,-3.53333 5.46904,-5 8.55128,-7.46898 12.29107,-10.87999 14.25304,-13 9.03641,-9.76429 26.11162,-26.66539 26.93447,-26.65981 0.55594,0.004 10.42019,9.46574 21.92055,21.0266 23.66191,23.78636 20.79809,22.0599 26.85347,16.18866 16.15375,-15.66255 27.04717,-26.12721 42.2171,-40.55545 29.00743,-27.58918 28.52693,-27.097 27.79015,-28.46558 -0.35563,-0.6606 -3.29947,-3.91546 -6.54187,-7.23302 -3.2424,-3.31757 -7.83823,-8.11757 -10.21295,-10.66667 -2.37473,-2.5491 -10.26029,-10.75917 -17.52346,-18.2446 -9.28312,-9.56718 -12.99635,-13.81931 -12.50073,-14.31493 0.38778,-0.38777 2.57333,-1.25095 4.85679,-1.91817 2.28346,-0.66721 5.50175,-1.63614 7.15175,-2.15317 1.65,-0.51703 5.2433,-1.57436 7.98512,-2.34963 2.74182,-0.77527 5.29182,-1.66279 5.66667,-1.97225 0.37485,-0.30946 1.88154,-0.77863 3.34821,-1.04258 1.46666,-0.26395 2.96666,-0.70616 3.33333,-0.98268 0.36667,-0.27651 1.71667,-0.72118 3,-0.98814 1.28333,-0.26697 4.43333,-1.17303 7,-2.01347 2.56667,-0.84044 9.31667,-2.93869 15,-4.66277 5.68333,-1.72408 13.48333,-4.12744 17.33333,-5.34079 3.85,-1.21336 9.25,-2.85969 12,-3.65851 2.75,-0.79883 5.6,-1.69971 6.33334,-2.00197 2.39617,-0.98763 12.3941,-3.99107 13.28559,-3.99107 0.47847,0 2.33494,-0.56689 4.12551,-1.25975 1.79056,-0.69286 4.60556,-1.63305 6.25556,-2.08929 3.90867,-1.08081 10.63987,-3.25089 12.33334,-3.97618 0.73333,-0.31408 2.23333,-0.7566 3.33333,-0.98338 1.1,-0.22679 5.15,-1.40413 9,-2.61633 3.85,-1.21219 9.25,-2.8757 12,-3.69667 2.75,-0.82097 6.46501,-2.06697 8.25557,-2.76887 1.79056,-0.70191 3.78128,-1.27619 4.42381,-1.27619 0.64254,0 3.60284,-0.870155 6.57846,-1.933674 2.97561,-1.063519 6.98489,-2.302806 8.90951,-2.753972 1.92463,-0.451165 3.84761,-1.095581 4.2733,-1.432034 0.45452,-0.359244 0.92661,-0.364768 1.14378,-0.01338 0.32899,0.53232 -0.33375,2.601588 -3.99272,12.46639 -0.54401,1.46667 -2.15136,5.96667 -3.57191,10 -1.42054,4.03333 -3.82076,10.78333 -5.33383,15 -1.51306,4.21667 -3.94077,11.11667 -5.3949,15.33333 -1.45414,4.21667 -2.92891,8.26667 -3.27728,9 -0.34837,0.73334 -1.51513,3.88334 -2.59279,7 -2.38122,6.88667 -7.78666,22.00382 -9.17763,25.66667 -0.55696,1.46667 -1.57336,4.31667 -2.25865,6.33333 -0.68529,2.01667 -2.33913,6.66667 -3.67521,10.33333 -3.31292,9.09186 -5.57043,15.54514 -6.41343,18.33334 -0.388,1.28333 -0.88896,2.63333 -1.11322,3 -0.22427,0.36666 -1.04348,2.46666 -1.82048,4.66666 -0.777,2.2 -3.13724,8.8 -5.24498,14.66667 -2.10775,5.86667 -4.41515,12.44645 -5.12757,14.62174 -0.71241,2.17529 -1.54631,4.27529 -1.8531,4.66666 -0.30679,0.39138 -0.72032,1.4616 -0.91894,2.37827 -0.68462,3.15951 -3.75168,10.97796 -4.38996,11.19072 -0.7529,0.25097 -3.02026,-1.99217 -13.7287,-13.58201 -4.37471,-4.73479 -12.04549,-12.80871 -17.04617,-17.94205 -5.00068,-5.13333 -10.99088,-11.35833 -13.31156,-13.83333 -2.32067,-2.475 -4.54686,-4.49856 -4.94707,-4.49681 -0.40022,0.002 -2.40684,1.72676 -4.45916,3.83334 -2.05232,2.10657 -6.25232,6.21274 -9.33333,9.12482 -3.08101,2.91207 -10.11322,9.66207 -15.62714,15 -5.51392,5.33792 -14.21392,13.67495 -19.33333,18.52673 -5.11942,4.85178 -13.05804,12.46075 -17.64137,16.90884 -11.67788,11.33327 -20.62679,19.52369 -21.90967,20.05263 -0.59968,0.24726 -3.77448,3.18632 -7.05511,6.53124 l -5.96478,6.08168 -20.37252,-20.36457 c -11.20489,-11.20051 -20.82074,-20.35977 -21.36856,-20.35392 -0.54781,0.006 -2.04603,0.92953 -3.32936,2.0526 -1.28333,1.12307 -3.23333,2.81585 -4.33333,3.76174 -1.1,0.94588 -3.8076,3.39721 -6.01688,5.4474 -2.20928,2.05019 -7.73113,7.02761 -12.27079,11.06095 -4.53965,4.03333 -9.32662,8.38333 -10.63772,9.66666 -1.3111,1.28334 -3.41763,3.16798 -4.68119,4.18811 -1.26356,1.02012 -4.69682,4.02012 -7.62947,6.66666 -6.42103,5.79459 -7.16584,6.46252 -12.42827,11.14523 -2.26633,2.01667 -6.28501,5.6771 -8.93041,8.13429 -2.6454,2.4572 -5.69165,5.1572 -6.76944,6 -1.07779,0.84281 -3.07876,2.6145 -4.4466,3.9371 -1.36784,1.32259 -4.35503,4.02259 -6.63821,6 -2.28317,1.9774 -5.96618,5.27601 -8.18446,7.33023 -2.21828,2.05422 -5.22244,4.75422 -6.67592,6 -1.45347,1.24577 -3.73862,3.31505 -5.0781,4.59838 -1.33949,1.28333 -3.68732,3.38333 -5.21741,4.66667 -1.53009,1.28333 -4.05773,3.53333 -5.61698,5 -3.20452,3.01424 -13.16272,12.00975 -15.95557,14.4131 -1.01424,0.87279 -3.56424,3.15508 -5.66666,5.07174 -2.10243,1.91666 -4.12259,3.47288 -4.48926,3.45827 -0.36666,-0.0146 -1.6602,-1.13279 -2.87452,-2.48484 z"
       id="path1" /></g></svg>
