<?xml version="1.0" standalone="no"?>
<!DOCTYPE svg PUBLIC "-//W3C//DTD SVG 20010904//EN"
 "http://www.w3.org/TR/2001/REC-SVG-20010904/DTD/svg10.dtd">
<svg version="1.0" xmlns="http://www.w3.org/2000/svg"
 width="500.000000pt" height="180.000000pt" viewBox="55 100 500.000000 180.000000"
 preserveAspectRatio="xMidYMid meet">
<g transform="translate(0.000000,400.000000) scale(0.100000,-0.100000)"
fill="#0f6878" stroke="none">
<path d="M2459 2973 c0 -5 0 -381 1 -838 0 -456 0 -836 0 -842 0 -8 14 -13 35
-13 l35 0 0 850 0 850 -35 0 c-19 0 -35 -3 -36 -7z"/>
<path d="M805 2888 c-62 -55 -27 -158 54 -158 44 0 76 20 88 57 30 88 -73 160
-142 101z"/>
<path d="M990 2821 c0 -18 6 -21 48 -22 26 0 69 -8 96 -18 l48 -17 -60 -37
c-75 -46 -169 -147 -211 -227 -18 -33 -34 -60 -36 -60 -12 0 -38 122 -39 184
-1 56 -5 71 -17 74 -40 7 -29 -168 16 -267 l25 -53 -45 -51 c-55 -61 -108
-153 -129 -226 -20 -67 -20 -63 5 -59 15 2 26 19 42 68 22 64 74 157 103 180
12 11 14 3 14 -51 0 -139 59 -284 160 -392 l55 -60 -70 7 c-61 7 -129 25 -187
50 -11 5 -20 1 -27 -13 -10 -18 -6 -22 44 -40 71 -27 187 -45 240 -38 l41 6
32 -70 c21 -45 56 -94 99 -140 62 -65 68 -69 80 -52 12 15 11 20 -11 36 -27
19 -109 124 -132 168 l-13 27 70 -25 c40 -14 105 -26 152 -30 73 -5 112 -1
221 23 l29 7 -24 -43 c-13 -23 -38 -59 -56 -80 -28 -33 -31 -40 -19 -55 12
-17 17 -13 61 46 26 35 58 85 71 111 13 26 36 55 50 64 24 16 26 16 55 -12 16
-15 28 -33 26 -39 -4 -10 38 -58 210 -237 98 -102 106 -108 144 -108 55 0 89
34 89 90 0 39 -7 48 -156 206 -86 90 -160 161 -166 158 -5 -3 -22 6 -38 21
l-28 27 44 66 c68 101 104 219 104 340 0 28 9 59 25 86 31 53 65 150 65 186 0
32 -26 48 -34 22 -2 -9 -8 -33 -11 -52 -9 -42 -45 -130 -54 -130 -4 0 -16 26
-26 57 -34 100 -115 207 -207 273 l-39 28 28 6 c73 14 112 16 160 8 40 -7 53
-6 57 4 3 8 -5 19 -17 26 -30 17 -182 14 -231 -4 -36 -13 -44 -13 -105 10 -84
31 -240 40 -319 19 -51 -14 -56 -13 -115 11 -34 13 -90 27 -124 30 -59 4 -63
3 -63 -17z m510 -151 c262 -50 418 -309 340 -563 -23 -73 -87 -167 -143 -210
-55 -42 -140 -78 -213 -90 -281 -48 -544 217 -494 500 31 178 164 321 332 358
78 17 111 18 178 5z"/>
<path d="M2042 2774 c-36 -15 -52 -41 -52 -86 1 -87 115 -119 161 -45 48 77
-27 166 -109 131z"/>
<path d="M2860 2535 l0 -255 175 0 175 0 0 45 0 45 -125 0 -125 0 0 60 0 60
110 0 110 0 0 40 0 40 -110 0 -110 0 0 65 0 65 125 0 125 0 0 45 0 45 -175 0
-175 0 0 -255z"/>
<path d="M4150 2535 l0 -255 50 0 50 0 1 238 c0 130 2 245 4 255 3 14 -5 17
-51 17 l-54 0 0 -255z"/>
<path d="M3270 2650 c0 -7 27 -50 60 -96 l61 -83 -66 -90 c-36 -50 -65 -93
-65 -96 0 -3 24 -5 54 -5 l55 0 33 55 c18 30 35 55 39 55 3 0 23 -25 43 -55
l36 -55 55 0 c30 0 55 2 55 5 0 3 -27 44 -60 92 -33 47 -60 90 -60 95 0 5 27
47 59 93 33 46 57 86 54 89 -4 3 -27 6 -53 6 -46 0 -48 -1 -84 -56 l-37 -56
-37 54 c-36 51 -39 53 -90 56 -34 2 -52 -1 -52 -8z"/>
<path d="M3700 2400 l0 -260 50 0 50 0 0 85 0 85 23 -14 c81 -53 197 -14 248
84 19 38 17 138 -5 183 -42 86 -154 124 -231 78 -44 -26 -45 -26 -45 -3 0 15
-9 19 -45 21 l-45 2 0 -261z m251 151 c24 -24 29 -38 29 -76 0 -51 -20 -99
-45 -109 -36 -13 -89 -6 -112 16 -19 18 -23 32 -23 83 0 62 9 84 45 103 36 20
75 14 106 -17z"/>
<path d="M4440 2645 c-54 -25 -89 -64 -105 -119 -43 -143 67 -270 217 -253 95
12 163 80 175 175 5 43 1 60 -20 104 -37 74 -81 102 -166 105 -44 2 -78 -2
-101 -12z m125 -79 c19 -8 41 -28 49 -45 56 -108 -71 -216 -155 -132 -52 52
-32 154 35 181 29 12 32 12 71 -4z"/>
<path d="M4796 2651 c-3 -5 -3 -90 1 -190 l6 -181 49 0 48 0 0 118 c0 112 1
120 24 141 13 13 42 25 65 28 41 6 41 6 41 49 0 43 0 44 -35 44 -24 0 -45 -9
-70 -31 l-35 -31 0 31 c0 30 -1 31 -44 31 -25 0 -47 -4 -50 -9z"/>
<path d="M5148 2640 c-113 -60 -129 -239 -28 -323 70 -60 183 -61 255 -3 l30
24 -29 31 -29 30 -29 -22 c-44 -32 -105 -27 -140 13 -16 17 -28 35 -28 40 0 6
53 10 135 10 104 0 137 3 141 13 9 24 -17 111 -43 145 -14 19 -41 40 -59 48
-48 20 -132 17 -176 -6z m149 -82 c13 -12 23 -30 23 -40 0 -16 -9 -18 -80 -18
-72 0 -80 2 -80 19 0 27 47 61 83 61 18 0 41 -9 54 -22z"/>
<path d="M2860 1759 l0 -252 133 5 c185 7 257 41 304 146 22 46 25 65 21 121
-8 106 -50 170 -138 210 -38 17 -66 21 -182 21 l-138 0 0 -251z m280 142 c49
-26 74 -73 74 -138 0 -57 -17 -90 -68 -127 -21 -16 -46 -22 -107 -25 l-79 -3
0 156 0 156 73 0 c51 0 82 -5 107 -19z"/>
<path d="M615 1968 c-22 -26 -26 -39 -21 -67 10 -68 74 -98 135 -66 33 16 41
33 41 81 0 82 -102 116 -155 52z"/>
<path d="M3820 1940 c0 -47 -2 -50 -25 -50 -22 0 -25 -4 -25 -40 0 -36 3 -40
25 -40 l25 0 0 -100 c0 -125 14 -164 67 -186 39 -17 127 -15 142 2 5 5 6 26 4
47 -5 33 -8 37 -27 30 -31 -11 -67 -7 -77 9 -5 7 -9 55 -9 106 l0 92 50 0 50
0 0 40 0 40 -50 0 -50 0 0 50 0 50 -50 0 -50 0 0 -50z"/>
<path d="M3469 1885 c-64 -20 -75 -35 -54 -74 18 -35 20 -36 55 -16 31 18 101
19 122 3 9 -7 19 -23 23 -35 6 -22 4 -23 -65 -23 -120 0 -170 -35 -170 -120 0
-39 5 -51 31 -76 27 -26 37 -29 99 -29 51 0 73 4 88 18 19 17 20 17 25 -3 5
-18 12 -21 49 -18 l43 3 -4 145 c-4 158 -11 184 -63 214 -40 24 -123 29 -179
11z m151 -226 c0 -33 -17 -56 -51 -68 -43 -15 -53 -14 -79 7 -17 14 -21 24
-15 41 9 28 37 40 98 40 41 1 47 -2 47 -20z"/>
<path d="M4190 1891 c-35 -11 -90 -40 -90 -47 0 -11 34 -64 41 -64 4 0 20 7
35 15 45 23 110 20 128 -7 29 -41 21 -48 -49 -48 -104 0 -160 -34 -171 -101
-12 -76 42 -129 131 -129 32 0 62 7 82 19 31 19 31 19 36 0 4 -15 14 -19 46
-19 l41 0 0 143 c0 155 -9 186 -64 222 -29 19 -128 29 -166 16z m128 -243 c-2
-26 -11 -37 -40 -53 -50 -27 -93 -13 -93 30 0 36 31 55 93 55 43 0 43 0 40
-32z"/>
<path d="M1389 1525 c-80 -43 -46 -167 46 -167 92 0 125 125 45 167 -36 18
-57 18 -91 0z"/>
</g>
</svg>
